<?xml version="1.0" encoding="UTF-8"?> <svg xmlns="http://www.w3.org/2000/svg" width="98" height="98" viewBox="0 0 98 98"><g transform="translate(-4018.714 6369)"><g transform="translate(1025.149 -7459.544)"><path d="M3055.082,1144.589h13.27l11.3-12.351a5.921,5.921,0,0,1,8.37,0h0a5.921,5.921,0,0,1,0,8.37l-15.43,15.431a8.775,8.775,0,0,1-6.19,2.57h-23.12l-11.36,11.35-23.06-22.6,2.79-2.79" fill="none" stroke="#fff" stroke-miterlimit="10" stroke-width="2"></path><rect width="11.7" height="37.15" transform="translate(2995.79 1157.988) rotate(-45)" fill="none" stroke="#fff" stroke-miterlimit="10" stroke-width="2"></rect><circle cx="1.92" cy="1.92" r="1.92" transform="translate(3020.112 1173.828)" fill="none" stroke="#fff" stroke-miterlimit="10" stroke-width="2"></circle><path d="M3008.862,1147.359l8.82-9.2a6.637,6.637,0,0,1,4.77-2h34.27v3.73a6.5,6.5,0,0,1-6.5,6.47h-9.83" fill="none" stroke="#fff" stroke-miterlimit="10" stroke-width="2"></path><path d="M3056.722,1136.158h11.125v8.43" fill="none" stroke="#fff" stroke-miterlimit="10" stroke-width="2"></path><rect width="28.085" height="8.43" transform="translate(3039.761 1127.728)" fill="none" stroke="#fff" stroke-miterlimit="10" stroke-width="2"></rect><rect width="28.085" height="8.43" transform="translate(3039.761 1119.298)" fill="none" stroke="#fff" stroke-miterlimit="10" stroke-width="2"></rect><rect width="28.085" height="8.43" transform="translate(3045.038 1110.868)" fill="none" stroke="#fff" stroke-miterlimit="10" stroke-width="2"></rect><rect width="28.085" height="8.43" transform="translate(3045.038 1102.438)" fill="none" stroke="#fff" stroke-miterlimit="10" stroke-width="2"></rect><path d="M3029.9,1113.725l.391.992a2.6,2.6,0,0,0,3.176,1.529l1.02-.312a2.6,2.6,0,0,1,3.012,3.777l-.531.925a2.6,2.6,0,0,0,.784,3.437l.881.6a2.6,2.6,0,0,1-1.075,4.71l-1.055.161a2.6,2.6,0,0,0-2.2,2.756l.078,1.064a2.6,2.6,0,0,1-4.353,2.1l-.783-.724a2.6,2.6,0,0,0-3.525,0l-.784.724a2.6,2.6,0,0,1-4.352-2.1l.077-1.064a2.6,2.6,0,0,0-2.2-2.756l-1.055-.161a2.6,2.6,0,0,1-1.075-4.71l.88-.6a2.6,2.6,0,0,0,.785-3.437l-.532-.925a2.6,2.6,0,0,1,3.012-3.777l1.02.312a2.6,2.6,0,0,0,3.176-1.529l.392-.992A2.6,2.6,0,0,1,3029.9,1113.725Z" fill="none" stroke="#fff" stroke-miterlimit="10" stroke-width="2"></path><circle cx="3.838" cy="3.838" r="3.838" transform="translate(3023.643 1120.282)" fill="none" stroke="#fff" stroke-miterlimit="10" stroke-width="2"></circle><rect width="98" height="98" transform="translate(2993.565 1090.544)" fill="none"></rect></g></g></svg> 