<?xml version="1.0" encoding="UTF-8"?> <svg xmlns="http://www.w3.org/2000/svg" id="Layer_1" data-name="Layer 1" viewBox="0 0 100 100"><defs><style>.cls-1{fill:none;}.cls-1,.cls-2{stroke:#fff;stroke-miterlimit:10;stroke-width:2px;}.cls-2{fill:#262626;}</style></defs><title>icon</title><path class="cls-1" d="M33.5,36.83h33A11.16,11.16,0,0,1,77.67,48v4.8a0,0,0,0,1,0,0H22.33a0,0,0,0,1,0,0V48A11.16,11.16,0,0,1,33.5,36.83Z"></path><line class="cls-2" x1="65.24" y1="45.9" x2="65.24" y2="52.8"></line><line class="cls-2" x1="35.16" y1="45.9" x2="35.16" y2="52.8"></line><line class="cls-1" y1="96.93" x2="100" y2="96.93"></line><path class="cls-1" d="M19.72,52.8H80.28a5.15,5.15,0,0,1,5.15,5.15V96.69a0,0,0,0,1,0,0H14.58a0,0,0,0,1,0,0V57.94A5.15,5.15,0,0,1,19.72,52.8Z"></path><circle class="cls-1" cx="50" cy="16.53" r="13"></circle><circle class="cls-1" cx="50" cy="74.54" r="2.83"></circle><path class="cls-1" d="M37,15.34C44.59,17.4,54.7,9,54.7,9s5.14,4.72,8,4.58"></path></svg> 