<?xml version="1.0" encoding="UTF-8"?> <svg xmlns="http://www.w3.org/2000/svg" width="100" height="100" viewBox="0 0 100 100"><g transform="translate(-3019.63 -1253.392)"><path d="M3078.985,1318.2l-.071,9.378-11.9,5.7.821-9.652" fill="none" stroke="#fff" stroke-linecap="round" stroke-linejoin="round" stroke-width="2"></path><path d="M3054.082,1293.07l-9.608.071-5.7,11.9,9.82-.653" fill="none" stroke="#fff" stroke-linecap="round" stroke-linejoin="round" stroke-width="2"></path><path d="M3054.038,1293.114a87.727,87.727,0,0,1,12.469-15.489c16.964-16.964,39.1-22.325,44.755-16.673s.344,27.755-16.62,44.719a87.437,87.437,0,0,1-15.692,12.567" fill="none" stroke="#fff" stroke-linecap="round" stroke-linejoin="round" stroke-width="2"></path><path d="M3048.6,1304.382l19.242,19.243" fill="none" stroke="#fff" stroke-linecap="round" stroke-linejoin="round" stroke-width="2"></path><path d="M3057,1320.331c-3.144,3.144-10.615,5.493-10.615,5.493s2.358-7.463,5.5-10.606a14.56,14.56,0,0,1,4.415-3.126l3.833,3.832A14.834,14.834,0,0,1,3057,1320.331Z" fill="none" stroke="#fff" stroke-linecap="round" stroke-linejoin="round" stroke-width="2"></path><line x1="7.356" y2="7.356" transform="translate(3049.49 1332.111)" fill="none" stroke="#fff" stroke-linecap="round" stroke-linejoin="round" stroke-width="2"></line><line x1="8.707" y2="8.707" transform="translate(3027.96 1319.88)" fill="none" stroke="#fff" stroke-linecap="round" stroke-linejoin="round" stroke-width="2"></line><line y1="11.507" x2="11.507" transform="translate(3025.823 1336.491)" fill="none" stroke="#fff" stroke-linecap="round" stroke-linejoin="round" stroke-width="2"></line><circle cx="4.646" cy="4.646" r="4.646" transform="translate(3086.252 1276.706)" fill="none" stroke="#fff" stroke-linecap="round" stroke-linejoin="round" stroke-width="2"></circle><rect width="100" height="100" transform="translate(3019.63 1253.392)" fill="none"></rect></g></svg> 