<?xml version="1.0" encoding="UTF-8"?> <svg xmlns="http://www.w3.org/2000/svg" width="100" height="101.05" viewBox="0 0 100 101.05"><g transform="translate(-2875.468 -1250.359)"><path d="M2890.756,1267.4a28.858,28.858,0,0,1,38.916-6.226" fill="none" stroke="#fff" stroke-linecap="round" stroke-linejoin="round" stroke-width="2"></path><circle cx="33.74" cy="33.74" r="33.74" transform="translate(2879.802 1251.359)" fill="none" stroke="#fff" stroke-linecap="round" stroke-linejoin="round" stroke-width="2"></circle><path d="M2938.452,1308.249l7.22,8-4.12,3.77-7.22-8" fill="none" stroke="#fff" stroke-linecap="round" stroke-linejoin="round" stroke-width="2"></path><path d="M2939.372,1321.929l20.87,23.16c2.84,3.14,7,4,9.37,1.87h0c2.34-2.11,1.94-6.36-.9-9.51l-20.87-23.16Z" fill="none" stroke="#fff" stroke-linecap="round" stroke-linejoin="round" stroke-width="2"></path><path d="M2896.452,1308.339v-15.32a7.9,7.9,0,0,1,7.8-8H2922.8a7.9,7.9,0,0,1,7.84,7.959v15.361" fill="none" stroke="#fff" stroke-miterlimit="10" stroke-width="2"></path><circle cx="7.59" cy="7.59" r="7.59" transform="translate(2905.952 1264.229)" fill="none" stroke="#fff" stroke-miterlimit="10" stroke-width="2"></circle><path d="M2905.952,1271.129c4.43,1.2,10.14-1.91,10.14-1.91s3.39,3,5,2.93" fill="none" stroke="#fff" stroke-miterlimit="10" stroke-width="2"></path><path d="M2917.8,1294.769h6.65v3.32a3.32,3.32,0,0,1-3.32,3.32h0a3.32,3.32,0,0,1-3.32-3.32v-3.32Z" fill="none" stroke="#fff" stroke-miterlimit="10" stroke-width="2"></path><rect width="100" height="100" transform="translate(2875.468 1251.409)" fill="none"></rect></g></svg> 