<?xml version="1.0" encoding="UTF-8"?> <svg xmlns="http://www.w3.org/2000/svg" id="Layer_1" data-name="Layer 1" viewBox="0 0 100 100"><defs><style>.cls-1{fill:none;stroke:#fff;stroke-miterlimit:10;stroke-width:2px;}</style></defs><title>icon</title><path class="cls-1" d="M63.32,15.14H73.64a1.67,1.67,0,0,1,1.67,1.67V97a1.66,1.66,0,0,1-1.67,1.66H26.36A1.66,1.66,0,0,1,24.69,97V16.81a1.67,1.67,0,0,1,1.67-1.67H36.68"></path><path class="cls-1" d="M75.31,39.74h8.48a1.91,1.91,0,0,1,1.91,1.91v20.9a1.91,1.91,0,0,1-1.91,1.91H75.31a0,0,0,0,1,0,0V39.74A0,0,0,0,1,75.31,39.74Z"></path><path class="cls-1" d="M16.21,39.74h8.48a0,0,0,0,1,0,0V64.46a0,0,0,0,1,0,0H16.21a1.91,1.91,0,0,1-1.91-1.91V41.65A1.91,1.91,0,0,1,16.21,39.74Z"></path><rect class="cls-1" x="31.79" y="34.45" width="36.43" height="21.74"></rect><line class="cls-1" x1="31.79" y1="67.69" x2="40.17" y2="67.69"></line><line class="cls-1" x1="45.81" y1="67.69" x2="54.19" y2="67.69"></line><line class="cls-1" x1="59.83" y1="67.69" x2="68.21" y2="67.69"></line><line class="cls-1" x1="31.79" y1="77.68" x2="40.17" y2="77.68"></line><line class="cls-1" x1="45.81" y1="77.68" x2="54.19" y2="77.68"></line><line class="cls-1" x1="59.83" y1="77.68" x2="68.21" y2="77.68"></line><line class="cls-1" x1="31.79" y1="87.67" x2="40.17" y2="87.67"></line><line class="cls-1" x1="45.81" y1="87.67" x2="54.19" y2="87.67"></line><line class="cls-1" x1="59.83" y1="87.67" x2="68.21" y2="87.67"></line><rect class="cls-1" x="36.68" y="1.59" width="26.64" height="23.87"></rect><line class="cls-1" x1="31.06" y1="25.46" x2="68.94" y2="25.46"></line></svg> 