<?xml version="1.0" encoding="UTF-8"?> <svg xmlns="http://www.w3.org/2000/svg" id="Layer_1" data-name="Layer 1" viewBox="0 0 100 100"><defs><style>.cls-1{fill:none;}.cls-1,.cls-2{stroke:#fff;stroke-miterlimit:10;stroke-width:2px;}.cls-2{fill:#262626;}</style></defs><title>icon</title><path class="cls-1" d="M74.5,58.23H64.18V49.8l-35.35.09-3.67,1.57v-8.6A11.16,11.16,0,0,1,36.32,31.7H64A11.17,11.17,0,0,1,75.2,42.86V58.23Z"></path><line class="cls-2" x1="64.18" y1="37.25" x2="64.18" y2="49.8"></line><line class="cls-2" x1="36.76" y1="37.25" x2="36.76" y2="49.8"></line><circle class="cls-1" cx="50.18" cy="13.34" r="11.76"></circle><path class="cls-1" d="M38.42,12.27c6.87,1.86,16-5.76,16-5.76s4.64,4.26,7.19,4.14"></path><path class="cls-1" d="M62.54,58.23H75.81l11.3-12.35a5.92,5.92,0,0,1,8.37,0h0a5.92,5.92,0,0,1,0,8.37L80.05,69.68a8.77,8.77,0,0,1-6.19,2.57H50.74L39.38,83.6,16.32,61l2.79-2.79"></path><rect class="cls-1" x="1.95" y="74.78" width="37.15" height="11.7" transform="translate(63.02 9.1) rotate(45)"></rect><circle class="cls-1" cx="29.49" cy="89.39" r="1.92"></circle><path class="cls-1" d="M16.32,61l8.82-9.2a6.64,6.64,0,0,1,4.77-2H64.18v3.73A6.5,6.5,0,0,1,57.68,60H47.85"></path></svg> 