<?xml version="1.0" encoding="UTF-8"?> <svg xmlns="http://www.w3.org/2000/svg" width="100" height="100" viewBox="0 0 100 100"><g transform="translate(-2731.307 -1251.409)"><path d="M2754.11,1303.6h38.307c6.909.011,12.5,5,12.5,11.16v35.51h-63.336v-35.51c0-6.164,5.608-11.16,12.526-11.16Z" fill="none" stroke="#fff" stroke-miterlimit="10" stroke-width="2"></path><circle cx="13.26" cy="13.26" r="13.26" transform="translate(2760.007 1269.619)" fill="none" stroke="#fff" stroke-miterlimit="10" stroke-width="2"></circle><circle cx="12.617" cy="12.617" r="12.617" transform="translate(2791.939 1252.954)" fill="none" stroke="#fff" stroke-miterlimit="10" stroke-width="2"></circle><path d="M2760,1281.669c7.75,2.1,18.06-6.5,18.06-6.5s5.24,4.81,8.12,4.68" fill="none" stroke="#fff" stroke-miterlimit="10" stroke-width="2"></path><path d="M2778.5,1318.609h11.48v5.85a5.62,5.62,0,0,1-5.62,5.62h-.23a5.62,5.62,0,0,1-5.62-5.62h0v-5.85Z" fill="none" stroke="#fff" stroke-miterlimit="10" stroke-width="2"></path><path d="M2798.753,1263.407l5.76,6.631,12.659-17.085" fill="none" stroke="#fff" stroke-linecap="round" stroke-linejoin="round" stroke-width="2"></path><rect width="100" height="100" transform="translate(2731.307 1251.409)" fill="none"></rect><path d="M2751.574,1350.269c-.51,0,0-27.226,0-27.226" fill="none" stroke="#fff" stroke-miterlimit="10" stroke-width="2"></path><path d="M2793.934,1350.269c-.511,0,0-27.226,0-27.226" fill="none" stroke="#fff" stroke-miterlimit="10" stroke-width="2"></path></g></svg> 