<svg width="966" height="965" viewBox="0 0 966 965" fill="none" xmlns="http://www.w3.org/2000/svg">
<g clip-path="url(#clip0_3_43)">
<path d="M786.097 421.002C785.713 421.002 785.332 421.002 784.948 421.006C784.975 419.598 784.989 418.197 784.989 416.806C784.989 289.092 681.087 185.189 553.371 185.189C447.857 185.189 357.211 255.568 330.02 355.444C297.95 338.598 262.297 329.778 225.706 329.778C101.761 329.778 0.925354 430.613 0.925354 554.556C0.925354 678.499 101.761 779.337 225.706 779.337H786.099C884.892 779.337 965.268 698.963 965.268 600.17C965.268 501.378 884.89 421.002 786.097 421.002ZM485.959 379.473C485.959 373.721 490.64 369.04 496.393 369.04C502.146 369.04 506.826 373.721 506.826 379.473C506.826 385.226 502.146 389.907 496.393 389.907C490.64 389.907 485.959 385.226 485.959 379.473ZM786.097 748.037H723.623V647.79L766.187 605.226C770.777 606.967 775.729 607.964 780.922 607.964C803.934 607.964 822.656 589.243 822.656 566.231C822.656 543.219 803.934 524.498 780.922 524.498C757.911 524.498 739.189 543.219 739.189 566.231C739.189 572.574 740.654 578.565 743.196 583.955L696.908 630.241C693.972 633.175 692.323 637.156 692.323 641.307V748.035H617.83V525.614L646.323 497.106C650.617 498.603 655.208 499.458 660.005 499.458C683.017 499.458 701.738 480.737 701.738 457.725C701.738 434.713 683.017 415.992 660.005 415.992C636.993 415.992 618.272 434.713 618.272 457.725C618.272 464.45 619.908 470.787 622.748 476.419L591.112 508.072C588.178 511.006 586.532 514.985 586.532 519.135V748.037H512.038V418.137C527.315 411.931 538.128 396.951 538.128 379.473C538.128 356.462 519.406 337.74 496.395 337.74C473.383 337.74 454.662 356.462 454.662 379.473C454.662 396.947 465.469 411.923 480.739 418.131V748.035H406.266V591.874C406.266 587.723 404.618 583.742 401.682 580.808L370.038 549.164C372.877 543.53 374.516 537.191 374.516 530.464C374.516 507.452 355.794 488.731 332.782 488.731C309.771 488.731 291.049 507.452 291.049 530.464C291.049 553.475 309.771 572.197 332.782 572.197C337.578 572.197 342.166 571.343 346.458 569.849L374.968 598.357V748.037H300.475V665.869C300.475 661.718 298.826 657.737 295.89 654.803L249.594 608.507C252.135 603.119 253.6 597.126 253.6 590.785C253.6 567.773 234.879 549.052 211.867 549.052C188.856 549.052 170.134 567.773 170.134 590.785C170.134 613.796 188.856 632.518 211.867 632.518C217.061 632.518 222.012 631.52 226.603 629.78L269.175 672.352V748.039H225.71C119.019 748.037 32.2251 661.242 32.2251 554.556C32.2251 447.87 119.019 361.077 225.706 361.077C263.643 361.077 300.402 372.089 332.006 392.92C336.415 395.824 341.989 396.311 346.836 394.214C351.681 392.116 355.141 387.716 356.04 382.514C372.638 286.313 455.626 216.491 553.371 216.491C663.826 216.491 753.69 306.353 753.69 416.808C753.69 423.059 753.37 429.564 752.74 436.141C752.292 440.825 753.973 445.46 757.32 448.767C760.667 452.07 765.333 453.696 770.001 453.193C775.447 452.604 780.864 452.306 786.097 452.306C867.631 452.306 933.966 518.641 933.966 600.174C933.966 681.708 867.631 748.037 786.097 748.037ZM770.489 566.229C770.489 560.476 775.17 555.796 780.922 555.796C786.675 555.796 791.356 560.476 791.356 566.229C791.356 571.982 786.675 576.662 780.922 576.662C775.17 576.662 770.489 571.982 770.489 566.229ZM649.57 457.723C649.57 451.97 654.25 447.29 660.003 447.29C665.756 447.29 670.436 451.97 670.436 457.723C670.436 463.476 665.756 468.156 660.003 468.156C654.25 468.156 649.57 463.476 649.57 457.723ZM332.78 540.897C327.027 540.897 322.347 536.216 322.347 530.464C322.347 524.711 327.027 520.03 332.78 520.03C338.533 520.03 343.214 524.711 343.214 530.464C343.214 536.216 338.531 540.897 332.78 540.897ZM211.861 601.216C206.108 601.216 201.428 596.535 201.428 590.782C201.428 585.03 206.108 580.349 211.861 580.349C217.614 580.349 222.294 585.03 222.294 590.782C222.294 596.535 217.614 601.216 211.861 601.216Z" fill="#7BB7E6"/>
</g>
<defs>
<clipPath id="clip0_3_43">
<rect width="964.34" height="964.34" fill="white" transform="translate(0.925354 0.0928955)"/>
</clipPath>
</defs>
</svg>
