<svg width="759" height="883" viewBox="0 0 759 883" fill="none" xmlns="http://www.w3.org/2000/svg">
<g clip-path="url(#clip0_3_57)">
<path fill-rule="evenodd" clip-rule="evenodd" d="M708.98 624.851L729.365 645.308C730.656 646.577 731.682 648.091 732.382 649.761C733.082 651.431 733.443 653.223 733.443 655.034C733.443 656.845 733.082 658.637 732.382 660.307C731.682 661.977 730.656 663.491 729.365 664.76L712.999 681.198C717.574 689.78 721.001 698.927 723.192 708.402H744.726C748.381 708.402 751.887 709.854 754.471 712.439C757.056 715.024 758.508 718.529 758.508 722.184V750.896C758.508 754.558 757.058 758.071 754.476 760.667C751.893 763.263 748.388 764.731 744.726 764.75H721.541C718.717 774.018 714.687 782.875 709.554 791.093L724.556 806.095C727.133 808.69 728.58 812.2 728.58 815.857C728.58 819.515 727.133 823.024 724.556 825.619L704.242 846.364C701.647 848.941 698.138 850.388 694.48 850.388C690.822 850.388 687.313 848.941 684.718 846.364L668.352 829.998C659.643 834.57 650.378 837.997 640.789 840.191V861.725C640.77 865.374 639.312 868.868 636.731 871.449C634.151 874.029 630.656 875.487 627.007 875.506H598.295C594.633 875.506 591.12 874.057 588.524 871.474C585.928 868.892 584.46 865.386 584.441 861.725V838.54C575.142 835.705 566.259 831.65 558.026 826.481L543.024 841.554C540.429 844.132 536.92 845.578 533.262 845.578C529.604 845.578 526.095 844.132 523.5 841.554L503.258 820.81C501.975 819.536 500.957 818.02 500.263 816.351C499.568 814.682 499.211 812.892 499.211 811.084C499.211 809.276 499.568 807.486 500.263 805.816C500.957 804.147 501.975 802.632 503.258 801.358L519.624 784.92C515.08 776.324 511.655 767.181 509.431 757.715H487.897C484.323 757.586 480.938 756.079 478.449 753.51C475.961 750.941 474.562 747.51 474.546 743.934V715.222C474.565 711.565 476.02 708.063 478.599 705.471C481.177 702.88 484.672 701.406 488.328 701.368H511.154C514.009 692.122 518.063 683.289 523.213 675.097L508.139 660.095C505.562 657.499 504.115 653.99 504.115 650.332C504.115 646.675 505.562 643.166 508.139 640.57L528.596 620.185C529.871 618.902 531.386 617.884 533.055 617.19C534.724 616.495 536.515 616.137 538.323 616.137C540.131 616.137 541.921 616.495 543.59 617.19C545.259 617.884 546.775 618.902 548.049 620.185L564.486 636.551C573.081 632.003 582.224 628.578 591.691 626.358V604.824C591.71 601.175 593.168 597.68 595.748 595.1C598.329 592.519 601.823 591.061 605.473 591.042H634.185C637.834 591.061 641.329 592.519 643.909 595.1C646.49 597.68 647.948 601.175 647.967 604.824V628.009C657.251 630.823 666.112 634.88 674.31 640.068L689.455 624.851C692.06 622.29 695.565 620.856 699.217 620.856C702.869 620.856 706.375 622.29 708.98 624.851ZM433.344 840.191C438.38 841.021 442.957 843.613 446.259 847.505C449.561 851.396 451.374 856.334 451.374 861.437C451.374 866.541 449.561 871.479 446.259 875.37C442.957 879.262 438.38 881.854 433.344 882.684H50.2545C43.7416 882.684 37.2929 881.398 31.2785 878.899C25.2641 876.4 19.8024 872.738 15.2072 868.123C10.6119 863.508 6.97345 858.03 4.50074 852.005C2.02802 845.98 0.769718 839.525 0.798076 833.013V49.5339C0.774366 43.0707 2.03074 36.6668 4.49472 30.6917C6.9587 24.7165 10.5815 19.2884 15.1541 14.7206C19.7402 10.1124 25.2019 6.46825 31.2176 4.00277C37.2334 1.53729 43.6816 0.3003 50.1827 0.36463H657.729C670.839 0.383617 683.408 5.60029 692.679 14.871C701.949 24.1418 707.166 36.7102 707.185 49.821V490.12C707.185 490.55 707.185 490.981 707.185 491.412C706.454 496.545 703.895 501.241 699.978 504.639C696.062 508.037 691.051 509.908 685.866 509.908C680.682 509.908 675.671 508.037 671.754 504.639C667.838 501.241 665.279 496.545 664.548 491.412V49.821C664.522 47.9978 663.803 46.2527 662.538 44.94C661.237 43.6481 659.49 42.9033 657.657 42.8584H50.2545C49.2954 42.7949 48.3339 42.9371 47.4343 43.2754C46.5346 43.6137 45.7177 44.1403 45.038 44.8199C44.3584 45.4995 43.8318 46.3165 43.4935 47.2162C43.1552 48.1158 43.013 49.0773 43.0765 50.0364V833.013C43.1202 834.811 43.8374 836.527 45.0863 837.822C46.4056 839.131 48.181 839.877 50.0392 839.903H433.344V840.191ZM137.18 737.258V689.453H344.122V737.043H137.252L137.18 737.258ZM534.123 429.322V473.179H471.818V429.322H534.123ZM422.649 390.704V473.179H360.272V390.704H422.649ZM311.175 272.554V473.538H248.798V272.554H311.175ZM199.629 189.936V473.179H137.18V189.936H199.629ZM496.08 210.752L590.184 211.111C590.125 223.526 587.615 235.807 582.799 247.251C577.983 258.694 570.954 269.073 562.118 277.794C557.898 281.936 553.309 285.684 548.408 288.992L496.08 210.752ZM486.462 192.089L481.724 91.5252C481.685 90.566 482.024 89.6297 482.668 88.9181C483.313 88.2065 484.211 87.7766 485.17 87.7209H488.902C515.512 87.4128 541.236 97.2669 560.83 115.274C580.424 133.28 592.411 158.083 594.347 184.624C594.388 185.579 594.061 186.514 593.433 187.235C592.806 187.956 591.925 188.409 590.973 188.5L490.481 195.678C490.013 195.717 489.542 195.662 489.096 195.516C488.65 195.371 488.237 195.137 487.883 194.829C487.528 194.522 487.239 194.146 487.032 193.725C486.825 193.303 486.704 192.845 486.677 192.376L486.462 192.089ZM492.419 94.8271L497.085 184.624L581.498 177.015C579.668 155.179 569.362 134.928 552.786 120.596C535.128 104.302 518.763 94.6118 493.065 94.8989L492.419 94.8271ZM475.264 206.373L525.51 293.729C512.644 301.166 498.293 305.667 483.485 306.91C468.676 308.154 453.776 306.11 439.85 300.924C425.924 295.738 413.316 287.538 402.927 276.912C392.539 266.285 384.628 253.494 379.759 239.454C374.891 225.414 373.185 210.471 374.765 195.695C376.344 180.918 381.169 166.673 388.896 153.979C396.622 141.285 407.058 130.455 419.457 122.265C431.857 114.074 445.913 108.724 460.621 106.599L474.977 206.373H475.264ZM137.18 609.274V561.325H430.473V608.915L137.18 609.274ZM616.168 676.604C627.369 676.604 638.319 679.925 647.632 686.149C656.946 692.372 664.205 701.217 668.491 711.565C672.778 721.914 673.899 733.301 671.714 744.287C669.529 755.273 664.135 765.364 656.215 773.285C648.294 781.205 638.203 786.599 627.217 788.785C616.231 790.97 604.844 789.848 594.495 785.562C584.146 781.275 575.301 774.016 569.078 764.703C562.855 755.389 559.534 744.44 559.534 733.238C559.534 718.218 565.5 703.813 576.121 693.192C586.742 682.571 601.148 676.604 616.168 676.604Z" fill="#7BB7E6"/>
</g>
<defs>
<clipPath id="clip0_3_57">
<rect width="757.494" height="882.033" fill="white" transform="translate(0.797913 0.363647)"/>
</clipPath>
</defs>
</svg>
