<svg width="720" height="688" viewBox="0 0 720 688" fill="none" xmlns="http://www.w3.org/2000/svg">
<g clip-path="url(#clip0_2_26)">
<path d="M517.869 383.915V334.343L479.808 326.854C477.922 318.789 475.226 310.935 471.761 303.411L499.178 264.003L465.231 228.059L427.76 252.021C417.559 245.267 406.402 240.084 394.661 236.645L386.085 194.122H336.862L328.764 235.897C315.952 239.334 303.787 244.841 292.75 252.201L255.489 228.338L221.542 264.282L248.889 303.561C245.435 311.128 242.759 319.026 240.901 327.134L202.961 334.602V384.155L243.408 392.422C246.409 402.11 250.597 411.39 255.878 420.049L232.355 455.234L267.17 490.269L304.602 465.308C311.768 468.994 319.283 471.958 327.037 474.154L334.465 516.608L383.678 517.886L393.323 474.244C401.267 472.017 408.962 468.982 416.287 465.188L453.569 490.01L488.375 454.974L464.941 419.919C470.265 411.215 474.491 401.885 477.522 392.142L517.869 383.915Z" stroke="#7BB7E6" stroke-width="29.5439" stroke-linecap="round" stroke-linejoin="round"/>
<path d="M360.385 435.954C404.664 435.954 440.559 399.822 440.559 355.25C440.559 310.679 404.664 274.546 360.385 274.546C316.105 274.546 280.21 310.679 280.21 355.25C280.21 399.822 316.105 435.954 360.385 435.954Z" stroke="#7BB7E6" stroke-width="29.5439" stroke-linecap="round" stroke-linejoin="round"/>
<path d="M603.964 126.328C634.64 126.328 659.507 99.9405 659.507 67.39C659.507 34.8395 634.64 8.45209 603.964 8.45209C573.288 8.45209 548.421 34.8395 548.421 67.39C548.421 99.9405 573.288 126.328 603.964 126.328Z" stroke="#7BB7E6" stroke-width="16.2247" stroke-linecap="round" stroke-linejoin="round"/>
<path d="M711.776 212.363V199.623C711.776 161.623 662.633 130.811 602.007 130.811C541.392 130.811 492.249 161.623 492.249 199.623V212.363H711.776Z" stroke="#7BB7E6" stroke-width="16.2247" stroke-linecap="round" stroke-linejoin="round"/>
<path d="M120.709 559.611C151.385 559.611 176.252 533.224 176.252 500.673C176.252 468.123 151.385 441.735 120.709 441.735C90.0334 441.735 65.1659 468.123 65.1659 500.673C65.1659 533.224 90.0334 559.611 120.709 559.611Z" stroke="#7BB7E6" stroke-width="16.2247" stroke-linecap="round" stroke-linejoin="round"/>
<path d="M8.99365 674.601V661.861C8.99365 623.851 58.1369 593.049 118.752 593.049C179.377 593.049 228.521 623.851 228.521 661.861V674.601H8.99365Z" stroke="#7BB7E6" stroke-width="16.2247" stroke-linecap="round" stroke-linejoin="round"/>
<path d="M448.847 629.073C402.037 646.889 351.544 652.837 301.876 646.385" stroke="#7BB7E6" stroke-width="16.2247" stroke-linecap="round" stroke-linejoin="round"/>
<path d="M254.93 636.401C278.732 632.717 309.055 624.33 329.104 612.978L308.136 647.284L313.957 687.072C299.959 668.751 275.378 649.131 254.93 636.401Z" fill="#7BB7E6"/>
<path d="M627.907 247.469C641.222 286.27 646.527 327.369 643.503 368.28" stroke="#7BB7E6" stroke-width="16.2247" stroke-linecap="round" stroke-linejoin="round"/>
<path d="M636.144 415.706C631.152 392.143 621.088 362.339 608.647 342.949L644.062 362L683.46 354.012C665.948 368.939 647.716 394.589 636.144 415.706Z" fill="#7BB7E6"/>
<path d="M248.569 42.4488C319.197 19.2501 395.891 22.8394 464.043 52.5331" stroke="#7BB7E6" stroke-width="16.2247" stroke-linecap="round" stroke-linejoin="round"/>
<path d="M506.377 75.1977C482.484 72.1125 451.033 71.7431 428.618 77.0648L458.312 49.9472L463.783 10.1194C472.12 31.5958 490.272 57.2857 506.377 75.1977Z" fill="#7BB7E6"/>
<path d="M47.5633 421.427C33.5395 367.335 34.7977 310.413 51.1977 256.994" stroke="#7BB7E6" stroke-width="16.2247" stroke-linecap="round" stroke-linejoin="round"/>
<path d="M68.8601 212.373C68.5306 236.456 71.7556 267.737 79.6133 289.403L49.2807 263.004L9.0835 262.106C29.4617 251.392 52.905 230.415 68.8601 212.373Z" fill="#7BB7E6"/>
<path d="M140.558 203.198C188.808 203.198 227.922 164.084 227.922 115.834C227.922 67.5847 188.808 28.4707 140.558 28.4707C92.3087 28.4707 53.1947 67.5847 53.1947 115.834C53.1947 164.084 92.3087 203.198 140.558 203.198Z" stroke="#7BB7E6" stroke-width="16.2247" stroke-linecap="round" stroke-linejoin="round"/>
<path d="M571.885 629.532C620.134 629.532 659.248 590.418 659.248 542.168C659.248 493.919 620.134 454.805 571.885 454.805C523.635 454.805 484.521 493.919 484.521 542.168C484.521 590.418 523.635 629.532 571.885 629.532Z" stroke="#7BB7E6" stroke-width="16.2247" stroke-linecap="round" stroke-linejoin="round"/>
</g>
<defs>
<clipPath id="clip0_2_26">
<rect width="719.007" height="686.727" fill="white" transform="translate(0.876465 0.334595)"/>
</clipPath>
</defs>
</svg>
