<svg width="829" height="829" viewBox="0 0 829 829" fill="none" xmlns="http://www.w3.org/2000/svg">
<g clip-path="url(#clip0_2_2)">
<path d="M815.037 138.273H539.047V83.0755H580.446C588.725 83.0755 594.245 77.5557 594.245 69.276V14.078C594.245 5.79836 588.725 0.278564 580.446 0.278564H249.258C240.978 0.278564 235.459 5.79836 235.459 14.078V69.276C235.459 77.5557 240.978 83.0755 249.258 83.0755H290.657V138.273H14.6669C6.38723 138.273 0.867432 143.793 0.867432 152.073V400.464C0.867432 408.743 6.38723 414.263 14.6669 414.263H56.0654V786.849C56.0654 810.308 74.0047 828.248 97.4638 828.248H470.05V800.649H97.4638C89.1841 800.649 83.6643 795.129 83.6643 786.849V414.263H304.456V483.26C304.456 491.54 309.976 497.06 318.256 497.06H414.852V469.461H332.055V414.263H470.05V455.662H497.649V414.263H746.04V441.862H773.639V414.263H815.037C823.317 414.263 828.836 408.743 828.836 400.464V152.073C828.836 143.793 823.317 138.273 815.037 138.273ZM263.058 27.8775H566.646V55.4765H263.058V27.8775ZM318.256 83.0755H511.448V138.273H318.256V83.0755ZM801.238 386.664H483.849H318.256H28.4664V165.872H304.456H525.248H801.238V386.664Z" fill="#7BB7E6"/>
<path d="M815.037 579.857H776.398C775.019 578.477 775.019 575.717 773.639 574.337L801.238 549.498C803.997 546.738 805.377 543.978 805.377 539.838C805.377 535.699 803.997 532.939 801.238 530.179L743.28 472.221C737.76 466.701 729.48 466.701 723.96 472.221L697.741 498.44C694.982 497.06 693.602 497.06 692.222 495.68V455.662C692.222 447.382 686.702 441.862 678.422 441.862H595.625C587.346 441.862 581.826 447.382 581.826 455.662V492.92C580.446 494.3 577.686 494.3 576.306 495.68L550.087 469.461C544.567 463.941 536.287 463.941 530.768 469.461L472.81 527.419C470.05 530.179 468.67 532.939 468.67 537.078C468.67 541.218 470.05 543.978 472.81 546.738L499.029 572.957C497.649 575.717 497.649 577.097 496.269 578.477H456.25C447.971 578.477 442.451 583.997 442.451 592.276V675.073C442.451 683.353 447.971 688.873 456.25 688.873H494.889C496.269 690.253 496.269 693.013 497.649 694.393L471.43 720.612C468.67 723.372 467.29 726.131 467.29 730.271C467.29 734.411 468.67 737.171 471.43 739.931L529.388 797.889C534.907 803.409 543.187 803.409 548.707 797.889L574.926 771.67C577.686 773.05 579.066 773.05 580.446 774.43V814.448C580.446 822.728 585.966 828.248 594.245 828.248H677.042C685.322 828.248 690.842 822.728 690.842 814.448V775.81C692.222 774.43 694.982 774.43 696.361 773.05L722.58 799.269C728.1 804.789 736.38 804.789 741.9 799.269L799.858 741.311C802.618 738.551 803.997 735.791 803.997 731.651C803.997 727.511 802.618 724.751 799.858 721.992L773.639 695.773C775.019 694.393 775.019 691.633 776.398 690.253H815.037C823.317 690.253 828.837 684.733 828.837 676.453V593.656C828.837 585.377 823.317 579.857 815.037 579.857ZM801.238 662.654H766.739C759.839 662.654 754.319 668.174 752.939 673.693C752.939 676.453 747.42 687.493 746.04 690.253C744.66 693.013 743.28 695.773 743.28 698.532C743.28 702.672 744.66 705.432 747.42 708.192L770.879 731.651L732.24 770.29L708.781 746.831C706.021 744.071 703.261 742.691 699.121 742.691C694.981 742.691 693.602 744.071 690.842 745.451C688.082 746.831 677.042 750.97 674.282 752.35C667.383 753.73 663.243 759.25 663.243 766.15V800.649H608.045V766.15C608.045 762.01 606.665 759.25 603.905 756.49C601.145 752.35 577.686 742.691 572.166 742.691C568.026 742.691 565.266 744.071 562.506 746.831L539.047 770.29L500.409 731.651L523.868 708.192C526.628 705.432 528.008 702.672 528.008 698.532C528.008 695.773 526.628 693.013 525.248 690.253C523.868 687.493 519.728 676.453 518.348 673.693C516.968 666.794 511.448 662.654 504.549 662.654H470.05V607.456H504.549C508.688 607.456 511.448 606.076 514.208 603.316C518.348 600.556 528.008 577.097 528.008 571.577C528.008 567.437 526.628 564.677 523.868 561.918L500.409 538.458L539.047 499.82L562.506 523.279C565.266 526.039 568.026 527.419 572.166 527.419C576.306 527.419 577.686 526.039 580.446 524.659C583.206 523.279 594.245 519.139 597.005 517.759C603.905 516.379 608.045 510.859 608.045 503.96V469.461H663.243V503.96C663.243 508.1 664.623 510.859 667.383 513.619C670.142 517.759 693.602 527.419 699.121 527.419C703.261 527.419 706.021 526.039 708.781 523.279L732.24 499.82L770.879 538.458L747.42 561.918C744.66 564.677 743.28 567.437 743.28 571.577C743.28 574.337 744.66 577.097 746.04 579.857C747.42 582.617 751.559 593.656 752.939 596.416C754.319 603.316 759.839 607.456 766.739 607.456H801.238V662.654Z" fill="#7BB7E6"/>
<path d="M635.644 579.857C605.285 579.857 580.446 604.696 580.446 635.055C580.446 665.414 605.285 690.253 635.644 690.253C666.003 690.253 690.842 665.414 690.842 635.055C690.842 604.696 666.003 579.857 635.644 579.857ZM635.644 662.654C620.464 662.654 608.045 650.234 608.045 635.055C608.045 619.875 620.464 607.456 635.644 607.456C650.823 607.456 663.243 619.875 663.243 635.055C663.243 650.234 650.823 662.654 635.644 662.654Z" fill="#7BB7E6"/>
<path d="M511.448 234.87H318.256V262.469H511.448V234.87Z" fill="#7BB7E6"/>
<path d="M470.05 290.068H359.654V317.667H470.05V290.068Z" fill="#7BB7E6"/>
<path d="M414.852 745.451H387.253V773.05H414.852V745.451Z" fill="#7BB7E6"/>
<path d="M359.654 745.451H332.055V773.05H359.654V745.451Z" fill="#7BB7E6"/>
<path d="M304.456 745.451H276.857V773.05H304.456V745.451Z" fill="#7BB7E6"/>
<path d="M249.258 745.451H221.659V773.05H249.258V745.451Z" fill="#7BB7E6"/>
<path d="M414.852 690.253H276.857V717.852H414.852V690.253Z" fill="#7BB7E6"/>
<path d="M414.852 635.055H387.253V662.654H414.852V635.055Z" fill="#7BB7E6"/>
<path d="M359.654 635.055H332.055V662.654H359.654V635.055Z" fill="#7BB7E6"/>
<path d="M304.456 635.055H276.857V662.654H304.456V635.055Z" fill="#7BB7E6"/>
<path d="M249.258 635.055H221.659V662.654H249.258V635.055Z" fill="#7BB7E6"/>
<path d="M194.06 635.055H166.461V662.654H194.06V635.055Z" fill="#7BB7E6"/>
<path d="M138.862 635.055H111.263V662.654H138.862V635.055Z" fill="#7BB7E6"/>
<path d="M414.852 579.857H166.461V607.456H414.852V579.857Z" fill="#7BB7E6"/>
<path d="M414.852 524.659H387.253V552.258H414.852V524.659Z" fill="#7BB7E6"/>
<path d="M359.654 524.659H332.055V552.258H359.654V524.659Z" fill="#7BB7E6"/>
<path d="M304.456 524.659H276.857V552.258H304.456V524.659Z" fill="#7BB7E6"/>
</g>
<defs>
<clipPath id="clip0_2_2">
<rect width="827.969" height="827.969" fill="white" transform="translate(0.867432 0.278564)"/>
</clipPath>
</defs>
</svg>
