<svg width="1119" height="1034" viewBox="0 0 1119 1034" fill="none" xmlns="http://www.w3.org/2000/svg">
<path d="M753.732 896.12C747.935 892.593 742.884 887.864 738.87 882.134C737.015 879.491 735.449 876.696 734.152 873.809H75.4305V224.537H969.55V648.488C988.638 650.212 1004.65 662.749 1011.38 679.916C1017.33 676.653 1023.97 674.636 1030.94 674.021C1035.66 673.61 1040.35 673.903 1044.89 674.801V62.789C1044.89 28.167 1016.73 0 982.111 0H62.8722C28.2528 0 0.0858154 28.167 0.0858154 62.789V886.37C0.0858154 920.992 28.2528 949.156 62.8722 949.156H748.01C742.663 938.329 741.395 926.107 744.541 914.347C746.356 907.583 749.494 901.413 753.732 896.12ZM900.601 105.435C900.601 92.6317 910.981 82.2499 923.784 82.2499H946.967C959.773 82.2499 970.149 92.629 970.149 105.435V131.711C970.149 144.514 959.77 154.893 946.967 154.893H923.784C910.978 154.893 900.601 144.514 900.601 131.711V105.435ZM792.801 105.435C792.801 92.6317 803.18 82.2499 815.983 82.2499H839.168C851.974 82.2499 862.351 92.629 862.351 105.435V131.711C862.351 144.514 851.972 154.893 839.168 154.893H815.983C803.18 154.893 792.801 144.514 792.801 131.711V105.435ZM684.997 105.435C684.997 92.6317 695.379 82.2499 708.18 82.2499H731.362C744.168 82.2499 754.547 92.629 754.547 105.435V131.711C754.547 144.514 744.168 154.893 731.362 154.893H708.18C695.379 154.893 684.997 144.514 684.997 131.711V105.435Z" fill="#7BB7E6"/>
<path d="M1118.65 851.905L1111.69 812.397C1110.75 807.077 1105.68 803.523 1100.35 804.461L1065.22 810.652C1061 800.755 1055.62 791.484 1049.22 782.999L1072.17 755.645C1073.84 753.663 1074.65 751.092 1074.43 748.505C1074.2 745.918 1072.95 743.531 1070.96 741.861L1040.24 716.073C1038.25 714.405 1035.67 713.595 1033.09 713.822C1030.5 714.048 1028.11 715.292 1026.45 717.28L1003.52 744.613C994.107 739.817 984.04 736.12 973.493 733.679V698.003C973.493 692.6 969.111 688.215 963.708 688.215H923.587C918.187 688.215 913.802 692.6 913.802 698.003V733.679C903.25 736.117 893.193 739.817 883.776 744.613L860.844 717.282C857.37 713.142 851.2 712.604 847.057 716.075L816.327 741.861C814.34 743.531 813.096 745.918 812.867 748.505C812.643 751.092 813.453 753.665 815.121 755.653L838.071 783.002C831.688 791.484 826.291 800.76 822.074 810.655L786.94 804.461C781.628 803.526 776.548 807.077 775.605 812.397L768.641 851.905C768.191 854.46 768.774 857.086 770.258 859.215C771.753 861.343 774.014 862.79 776.572 863.24L811.732 869.437C812.305 880.33 814.202 890.869 817.255 900.905L786.352 918.74C784.103 920.032 782.465 922.174 781.791 924.679C781.119 927.185 781.474 929.855 782.768 932.103L802.826 966.845C804.118 969.094 806.26 970.732 808.764 971.403C809.598 971.627 810.448 971.736 811.298 971.736C813 971.736 814.686 971.294 816.189 970.426L847.116 952.569C854.389 960.361 862.599 967.266 871.572 973.106L859.36 1006.65C858.475 1009.09 858.59 1011.79 859.687 1014.14C860.785 1016.49 862.77 1018.31 865.207 1019.19L902.898 1032.91C903.98 1033.31 905.115 1033.51 906.247 1033.51C907.659 1033.51 909.079 1033.2 910.387 1032.59C912.739 1031.49 914.554 1029.51 915.441 1027.07L927.65 993.518C932.885 994.152 938.213 994.479 943.618 994.479C949.024 994.479 954.352 994.146 959.587 993.518L971.799 1027.07C972.683 1029.51 974.505 1031.49 976.852 1032.59C978.158 1033.2 979.572 1033.51 980.992 1033.51C982.122 1033.51 983.257 1033.31 984.338 1032.91L1022.03 1019.19C1024.47 1018.31 1026.45 1016.48 1027.55 1014.14C1028.65 1011.79 1028.76 1009.09 1027.88 1006.65L1015.66 973.111C1024.63 967.271 1032.84 960.361 1040.12 952.574L1071.05 970.431C1072.55 971.294 1074.24 971.742 1075.94 971.742C1076.79 971.742 1077.64 971.627 1078.47 971.409C1080.98 970.737 1083.12 969.094 1084.41 966.85L1104.47 932.103C1105.76 929.86 1106.12 927.185 1105.45 924.679C1104.77 922.18 1103.13 920.038 1100.89 918.74L1069.99 900.91C1073.04 890.872 1074.93 880.333 1075.5 869.442L1110.67 863.243C1113.22 862.793 1115.49 861.346 1116.98 859.218C1118.52 857.086 1119.1 854.46 1118.65 851.905ZM943.65 914.686C913.933 914.686 889.837 890.589 889.837 860.869C889.837 831.149 913.936 807.055 943.65 807.055C973.37 807.055 997.467 831.149 997.467 860.869C997.467 890.589 973.37 914.686 943.65 914.686Z" fill="#7BB7E6"/>
<path d="M438.842 584.442C438.842 571.782 431.423 560.154 419.938 554.82L314.828 505.983L419.941 457.14C431.423 451.802 438.842 440.176 438.842 427.521V426.672C438.842 415.456 433.197 405.159 423.75 399.141C418.523 395.803 412.436 394.037 406.151 394.037C401.415 394.037 396.659 395.079 392.405 397.055L224.362 475.2C212.883 480.539 205.469 492.165 205.469 504.816V507.153C205.469 519.788 212.88 531.406 224.365 536.772L392.424 614.924C396.769 616.935 401.396 617.956 406.175 617.956C412.404 617.956 418.473 616.187 423.75 612.83C433.202 606.788 438.845 596.5 438.845 585.297L438.842 584.442Z" fill="#7BB7E6"/>
<path d="M604.644 314.411C598.514 306.02 588.654 301.011 578.267 301.011H577.431C563.167 301.011 550.662 310.136 546.317 323.698L435.599 666.753C432.448 676.658 434.222 687.568 440.344 695.957C446.474 704.343 456.333 709.354 466.721 709.354H467.56C481.818 709.354 494.315 700.227 498.655 686.667L609.359 343.639C612.54 333.742 610.776 322.816 604.644 314.411Z" fill="#7BB7E6"/>
<path d="M820.616 475.197L652.57 397.053C648.329 395.081 643.582 394.04 638.845 394.04C632.563 394.04 626.473 395.801 621.249 399.133C611.786 405.162 606.141 415.456 606.141 426.672V427.521C606.141 440.165 613.555 451.794 625.048 457.154L730.155 505.986L625.045 554.82C613.561 560.154 606.141 571.782 606.141 584.442V585.297C606.141 596.499 611.786 606.785 621.244 612.833C626.503 616.184 632.577 617.956 638.813 617.956C643.587 617.956 648.209 616.935 652.584 614.916L820.637 536.763C832.111 531.411 839.52 519.791 839.52 507.155V504.819C839.512 492.165 832.098 480.539 820.616 475.197Z" fill="#7BB7E6"/>
</svg>
